<?xml version="1.0" ?><svg id="object" viewBox="0 0 32 32" xmlns="http://www.w3.org/2000/svg"><defs><style>.cls-1{fill:#eef5fd;}.cls-2{fill:#d7e2f2;}.cls-3{fill:#96d7ff;}.cls-4{fill:#86c3ef;}.cls-5{fill:#91e085;}.cls-6{fill:#84bf6f;}.cls-7{fill:#ffc661;}.cls-8{fill:#e49f4e;}</style></defs><title/><rect class="cls-1" height="30" rx="3" ry="3" width="30" x="1" y="1"/><path class="cls-2" d="M31,4V28a3,3,0,0,1-3,3H16V1H28A3,3,0,0,1,31,4Z"/><rect class="cls-3" height="22" rx="2" ry="2" width="22" x="5" y="5"/><path class="cls-4" d="M27,7V25a2,2,0,0,1-2,2H16V5h9A2,2,0,0,1,27,7Z"/><path class="cls-5" d="M10.52,17.49a1.08,1.08,0,0,0-1.77,0L5,23.49V25a2,2,0,0,0,2,2h8.64a.41.41,0,0,0,.1-.13,1,1,0,0,0,0-1.06Z"/><path class="cls-5" d="M21.07,15.48a1.07,1.07,0,0,0-1.78,0L12.54,26a1.06,1.06,0,0,0-.07,1H25a2,2,0,0,0,2-2v-.27Z"/><path class="cls-6" d="M27,24.73V25a2,2,0,0,1-2,2H16V20.61l3.29-5.13a1.07,1.07,0,0,1,1.78,0Z"/><circle class="cls-7" cx="14" cy="11.17" r="3"/><path class="cls-8" d="M17,11.17a3,3,0,0,1-1,2.23V8.94A3,3,0,0,1,17,11.17Z"/></svg>